/* XPM */
static char *_ef40e2c82974cb4f16e71d1c0c3f7e4[] = {
/* columns rows colors chars-per-pixel */
"128 128 16 1 ",
"  c #18A2DC",
". c #3CA3CC",
"X c #03A2E4",
"o c #00A2E6",
"O c #00A1E8",
"+ c #01A1EB",
"@ c #5FA4C2",
"# c #89A4B3",
"$ c #A4A5A5",
"% c gray65",
"& c #ACA6A3",
"* c #B1B1B1",
"= c #CECECE",
"- c #EEEEEE",
"; c gray100",
": c None",
/* pixels */
"::::::::::::::::::::::::::::::::::::::::::::::::;;;;;---=*****&&&&*****=---;;;;;::::::::::::::::::::::::::::::::::::::::::::::::",
":::::::::::::::::::::::::::::::::::::::::::::;;;---==***&%%$%%%%%%%%$%%&***==---;;;:::::::::::::::::::::::::::::::::::::::::::::",
"::::::::::::::::::::::::::::::::::::::::::;;;--=**$$$$$$$$%%%%%%%%%%%%$$$$$$$$**=--;;;::::::::::::::::::::::::::::::::::::::::::",
":::::::::::::::::::::::::::::::::::::::;;;--=*$$$$$&%%$$%%%$%%%%%%%%$%%%%%%%&$$$$$*==-;;;:::::::::::::::::::::::::::::::::::::::",
":::::::::::::::::::::::::::::::::::::;;:-=*$$$%&%%%$%%%%%%%%%%%%%%%%%%%%%%%%$%%%&%$$$*=-:;;:::::::::::::::::::::::::::::::::::::",
":::::::::::::::::::::::::::::::::::;;-=*$$$%&%%$%%%%%%%%%%%%%%%%%%%%%%%%%%%%$%%%$%%&%$$$*=-;;:::::::::::::::::::::::::::::::::::",
":::::::::::::::::::::::::::::::::;;-=*$$$&%%$%%%%%%%%%%%%%%%%%%%%%%%%%%%%%%%%%%%%%%$%%&%$$*=-;;:::::::::::::::::::::::::::::::::",
":::::::::::::::::::::::::::::::;;-=*$$%%$$%%%%%%%%%%%%%%%%%%%%%%%%%%%%%%%%%%%%%%%%%%%%$%$$$$*=-;;:::::::::::::::::::::::::::::::",
"::::::::::::::::::::::::::::::;:=*$$&%%%%%%%%%%%%%%%%%%%%%%%%%%%%%%%%%%%%%%%%%%%%%%%%%%%%%%&$$*=:;::::::::::::::::::::::::::::::",
"::::::::::::::::::::::::::::;;-*$$&%%%%%%%%%%%%%%%%%%%%%%%%%%%%%%%%%%%%%%%%%%%%%%%%%%%%%%%%%%&$$*-;;::::::::::::::::::::::::::::",
":::::::::::::::::::::::::::;-=*$%%$%%%%%%%%%%%%%%%%%%%%%%%%%%%%%%%%%%%%%%%%%%%%%%%%%%%%%%%%%%%%%$*=-;:::::::::::::::::::::::::::",
":::::::::::::::::::::::::;;-*$$&%$%%%%%%%%%%%%%%%%%%%%%%%%%%%%%%%%%%%%%%%%%%%%%%%%%%%%%%%%%%%%$%&$$*-;;:::::::::::::::::::::::::",
"::::::::::::::::::::::::;:=&$&$$%%%%%%%%%%%%%%%%%%%%%%%%%%%%%%%%%%%%%%%%%%%%%%%%%%%%%%%%%%%%%%%%$$&$&=:;::::::::::::::::::::::::",
":::::::::::::::::::::::;-*$$$$%%%%%%%%%%%%%%%%%%%%%%%%%%%%%%%%%%%%%%%%%%%%%%%%%%%%%%%%%%%%%%%%%%%$$%$$*-;:::::::::::::::::::::::",
"::::::::::::::::::::::;-*$%%$%%%%%%%%%%%%%%%%%%%%%%%%%%%%%%%%%%%%%%%%%%%%%%%%%%%%%%%%%%%%%%%%%%%%%%$%%$*-;::::::::::::::::::::::",
":::::::::::::::::::::;-*$$%$%%%%%%%%%%%%%%%%%%%%%%%%%%%%%%%%%%%%%%%%%%%%%%%%%%%%%%%%%%%%%%%%%%%%%%%%$%%$&=;:::::::::::::::::::::",
":::::::::::::::::::;:=$$%$%%%%%%%%%%%%%%%%%%%%%%%%%%%%%%%%%%%%%%%%%%%%%%%%%%%%%%%%%%%%%%%%%%%%%%%%%%%%$%$$=:;:::::::::::::::::::",
"::::::::::::::::::;:=$$%$%%%%%%%%%%%%%%%%%%%%%%%%%%%%%%%%%%%%%%%%%%%%%%%%%%%%%%%%%%%%%%%%%%%%%%%%%%%%%%$%$$=:;::::::::::::::::::",
":::::::::::::::::;:=$%%$%%%%%%%%%%%%%%%%%%%%%%%%%%%%%%%%%%%%%%%%%%%%%%%%%%%%%%%%%%%%%%%%%%%%%%%%%%%%%%%%$%%$=:;:::::::::::::::::",
"::::::::::::::::::=$%%$%%%%%%%%%%%%%%%%%%%%%%%%%%%%%%%%%%%%%%%%%%%%%%%%%%%%%%%%%%%%%%%%%%%%%%%%%%%%%%%%%%$$$$=:;::::::::::::::::",
":::::::::::::::::=$%%$%%%%%%%%%%%%%%%%%%%%%%%%%%%%%%%%%%%%%%%%%%%%%%%%%%%%%%%%%%%%%%%%%%%%%%%%%%%%%%%%%%%%$%%$=:::::::::::::::::",
":::::::::::::::;=$%%$%%%%%%%%%%%%%%%%%%%%%%%%%%%%%%%%%%%%%%%%%%%%%%%%%%%%%%%%%%%%%%%%%%%%%%%%%%%%%%%%%%%%%%$%%$=;:::::::::::::::",
"::::::::::::::;-$$%$%%%%%%%%%%%%%%%%%%%%%%%%%%%%%%%%%%%%%%%%%%%%%%%%%%%%%%%%%%%%%%%%%%%%%%%%%%%%%%%%%%%%%%%%$%$$=;::::::::::::::",
":::::::::::::;-*$$%%%%%%%%%%%%%%%%%%%%%%%%%%%%%%%%%%%%%%%%%%%%%%%%%%%%%%%%%%%%%%%%%%%%%%%%%%%%%%%%%%%%%%%%%%%$%$&-;:::::::::::::",
"::::::::::::;-*$%$%%%%%%%%%%%%%%%%%%%%%%%%%%%%%%%%%%%%%%%%%%%%%%%%%%%%%%%%%%%%%%%%%%%%%%%%%%%%%%%%%%%%%%%%%%%%$%$*-;::::::::::::",
"::::::::::::-*$%$%%%%%%%%%%%%%%%%%%%%%%%%%%%%%%%%%%%%%%%%%%%%%%%%%%%%%%%%%%%%%%%%%%%%%%%%%%%%%%%%%%%%%%%%%%%%%%$$$*-::::::::::::",
":::::::::::;=$$$%%%%%%%%$$$$$$$$$$$$$$$$$$$$$$$$$$$$$$$$$$$$$$$$$$$$$$$$$$$$$$$$$$$$$$$$$$$$$$$$$$$$$$$$$%%%%%%%$$$=;:::::::::::",
"::::::::::;-&$$%%%%%%%%%$$$$$$$$$$$%$$$$$$$$$$$%$$$$$$$$$$$%$$$$$$$$$$$$$$$$$$$$$$$$$$$$$$$$$$$$$$$$$$$$$%%%%%%%%%$&-;::::::::::",
"::::::::::-*$%$%%%%%%%%$&&&&&&&&&&&&&&&&&&&&&&&&&&&&&&&&&&&&&&&&&&&&&&&&&&&&&&&&&&&&&&&&&&&&&&&&&&&&&&&&&$%%%%%%%$%$*-::::::::::",
":::::::::;=$%$%%%%%%%%$&#                                                                               .&$$%%%%%%$%$=;:::::::::",
"::::::::;-*$$%%%%%%%%%$&@++OO++OOOOOOOOOOOOOOOOOOOOOOOOOOOOOOOOO++O+O+O+O+++O+O+++O+O+++O+O+++O+OO++OO++ &$$%%%%%%%$$&-;::::::::",
":::::::::*$%%%%%%%%%%%$&@+XXXXXOoooooooooOXXooooooooooOXooooooooOXXXXXXXXXXXXXXXXXXXXXXXXXXXXXXXXXXXXXO+ &$$%%%%%%%%$$*:::::::::",
":::::::;=$%$%%%%%%%%%%$&@+XOooooooooooooooooooooooooooooooooooooooooooooooooooooooooooooooooooooXXOXOooO &$$%%%%%%%%$%$=;:::::::",
":::::::-*$%%%%%%%%%%%%$&@OXXooooooooooooooooooooooooooooooooooooooooooooooooooooooooooooooooooooXOXOoooO &$$%%%%%%%%%%$*-;::::::",
"::::::;=$$$%%%%%%%%%%%$&@+XOooooooooooooooooooooooooooooooooooooooooooooooooooooooooooooooooooooOXOXoooO &$$%%%%%%%%%$%$=;::::::",
":::::;-*$$%%%%%%%%%%%%$&@+XXooooooooooooooooooooooooooooooooooooooooooooooooooooooooooooooooooooXOXOoooO &$$%%%%%%%%%%$$*-;:::::",
":::::;=$%$%%%%%%%%%%%%$&@+XoooooooooooooooooooooooooooOXoooooooooooooooooooooooooooooooooooooooooooooooO &$$%%%%%%%%%%%%$=;:::::",
"::::;-*$$%%%%%%%%%%%%%$&@+oooooooooooooOoooooooooooooOXOoooooooooooooooooooooooooooooooooooooooooooooooO &$$%%%%%%%%%%%$$*-;::::",
"::::;=$$%%%%%%%%%%%%%%$&@+XooooooooooooXooooooooooooooXXoXXOooooooooOoXXooooooOXoooooooOXXoooooooooooooO &$$%%%%%%%%%%%%$$=;::::",
"::::-*$$%%%%%%%%%%%%%%$&@+XOoooooooXO.%#################%#+XooooooooOX.%##################%#OooooooooooO &$$%%%%%%%%%%%%$$*-::::",
":::;-$%$%%%%%%%%%%%%%%$&@+XoooooooXX+.&%&&&&&&&&&&&&&&&&&%+XooooooooOX@&&&&&&&&&&&&&&&&&&&&$OXoooooooooO &%$%%%%%%%%%%%%$%$-;:::",
":::;=$%%%%%%%%%%%%%%%%$&@+XoooooooOX+.&$$%$$$$$$$$$$$$$$&#+XooooooooOo.&$$$$$$$$$%$$$$$$$$&#OOoooooooooO &$$%%%%%%%%%%%%%%$=;:::",
"::;-*$$%%%%%%%%%%%%%%%$&@+XoooooooOX+.&$%%%%%%%%%%%%%%%$&#+XooooooooOX.&$$%%%%%%%%%%%%%%%$&#OooooooooooO &$$%%%%%%%%%%%%%$$*-;::",
"::;-$%%%%%%%%%%%%%%%%%$&@+XoooooooXX+.&$%%%%%%%%%%%%%%%$&#OoooooooooOX.&$$%%%%%%%%%%%%%%%$&#OooooooooooO &$$%%%%%%%%%%%%%%%$=;::",
"::;=$%%%%%%%%%%%%%%%%%%&@+Xooooooooo+.&$%%%%%%%%%%%%%%%$&#+XooooooooOX.&$$%%%%%%%%%%%%%%%$&#OooooooooooO &$$%%%%%%%%%%%%%%%$*;::",
":;-*$$%%%%%%%%%%%%%%%%$&@+XooooooooX+.&%%%%%%%%%%%%%%%%$&#+XooooooooOX.&$$%%%%%%%%%%%%%%%$&#OooooooooooO &$$%%%%%%%%%%%%%%$$*-;:",
":;-$$%%%%%%%%%%%%%%%%%%&@+XooooooooX+.&$%%%%%%%%%%%%%%%%&#+XooooooooOX.&$$%%%%%%%%%%%%%%%$&#OooooooooooO &$$%%%%%%%%%%%%%%%$$-;:",
":;=$%%%%%%%%%%%%%%%%%%%&@+XooooooooXO.&$%%%%%%%%%%%%%%%%&#+XooooooooOX.&$$%%%%%%%%%%%%%%%%&#OooooooooooO &$$%%%%%%%%%%%%%%$$$=;:",
";-*$$%%%%%%%%%%%%%%%%%$&@+XooooooooXO.&%%%%%%%%%%%%%%%%$&#+XXOooooooOX.&%%%%%%%%%%%%%%%%%$&#OoooooooOXOO &$$%%%%%%%%%%%%%%%$$*::",
";-*$$%%%%%%%%%%%%%%%%%$&@+XooooooooX+.&%%%%%%%%%%%%%%%%$&#+XooooooooOX.&$$%%%%%%%%%%%%%%%$&#OoooooooXOXO &$$%%%%%%%%%%%%%%%%$*-;",
";-$$%%%%%%%%%%%%%%%%%%$&@+XooooooooXO.&%%%%%%%%%%%%%%%%$&#+XooooooooOX.&$$%%%%%%%%%%%%%%%$&#OoooooooOoXO &$$%%%%%%%%%%%%%%%%$$-;",
";=$$%%%%%%%%%%%%%%%%%%$&@+XooooooooX+.&$%%%%%%%%%%%%%%%$&#+XooooooooOX.&$$%%%%%%%%%%%%%%%$&#OoooooooooOO &$$%%%%%%%%%%%%%%%%$$=;",
";=$%%%%%%%%%%%%%%%%%%%$&@+XoooooOXOX+.&%%%%%%%%%%%%%%%%$&#+XooooooooOX.&$$%%%%%%%%%%%%%%%$&#OXooooooOXOO &$$%%%%%%%%%%%%%%%%$$=;",
"-*$$%%%%%%%%%%%%%%%%%%$&@+XooooooOXX+.&$$$$$$%%%$$$$$$$$%#+XooooooooOX.&$$$$$$$$$$$$$%%%$$&#OXooooooXOXO &$$%%%%%%%%%%%%%%%%$$*:",
"-*$%%%%%%%%%%%%%%%%%%%$&@+ooooooooXX+.&&&&&&&&&&&&&&&&&&&%+XooooooooOX@&&&&&&&&&&&&&&&&&&&&$OXOoooooXXO+ &$$%%%%%%%%%%%%%%%%%$*-",
"-*$%%%%%%%%%%%%%%%%%%%$&@OXoooooooOXO @@@@@@@@@@@@@@@@@@@@OoooooooooOX.@@@@@@@@@@@@@@@@@@@@@OOXOooooXXX+ &$$%%%%%%%%%%%%%%%%%$$-",
"=&$$%%%%%%%%%%%%%%%%%%$&@+XOoooooooooO+O++++++++O+++O+++++oooooooooooO++O+O++++++++++++++++OoooooooooooO &$$%%%%%%%%%%%%%%%%%$$-",
"*$$%%%%%%%%%%%%%%%%%%%$&@+XXoooooooooooXXXXXXXXXXXXXXoXXXoooooooooooooXXXXXoXXXXXXXXXXXXXXXooooooooooooO &$$%%%%%%%%%%%%%%%%%%$=",
"*%$%%%%%%%%%%%%%%%%%%%$&@+XXooooooooooooooooooooooOXooooooooooooooooooooXOoooooooooooooooooooooooooooooO &$$%%%%%%%%%%%%%%%%%$$=",
"*%%%%%%%%%%%%%%%%%%%%%$&@+XOoooooooooooooooooooooOXOooooooooooooooooooooOXoooooooooooooooooooooooooooooO &$$%%%%%%%%%%%%%%%%%%$*",
"*%%%%%%%%%%%%%%%%%%%%%$&@+XOXOoooooooooooooooooooooooooooooooooooooooooooooooooooooooooooooooooooooooooO &$$%%%%%%%%%%%%%%%%%%$*",
"*%%%%%%%%%%%%%%%%%%%%%$&@+XXOXoooooooooooooooooooooooooooooooooooooooooooooooooooooooooooooooooooooooooO &$$%%%%%%%%%%%%%%%%%%$*",
"&%%%%%%%%%%%%%%%%%%%%%$&@+XOXOXooooooooooooooooooooooooooooooooooooooooooooooooooooooooooooooooooooooooO &$$%%%%%%%%%%%%%%%%%%$*",
"&%%%%%%%%%%%%%%%%%%%%%$&@+XXOXOooooooooooooooooooooooooooooooooooooooooooooooooooooooooooooooooooooooooO &$$%%%%%%%%%%%%%%%%%%$&",
"&%%%%%%%%%%%%%%%%%%%%%$&@+XoooooooooOXXXXXXXXXXXXXXXXXoOoooooooooooooooooXXXXXXXXXXXXXXXXXXXoooooooooooO &$$%%%%%%%%%%%%%%%%%%$&",
"&%%%%%%%%%%%%%%%%%%%%%$&@+XoooooooooXO+++++++++O++++++OOooooooooooooooooO++++++++O++++++++++oooooooooooO &$$%%%%%%%%%%%%%%%%%%$*",
"*%%%%%%%%%%%%%%%%%%%%%$&@+XoooooooooO @@@@@@@@@@@@@@@@@@oOoooooooooooooOX@@@@@@@@@@@@@@@@@@.OooooooooooO &$$%%%%%%%%%%%%%%%%%%$*",
"*%%%%%%%%%%%%%%%%%%%%%$&@+XoooooooOX+.&&&&&&&&&&&&&&&&&#oOoooooooooooooOX#&&&&&&&&&&&&&&&&&$OooooooooooO &$$%%%%%%%%%%%%%%%%%%$*",
"*%%%%%%%%%%%%%%%%%%%%%%&@+Xooooooooo+.&$$$$$$$$$%%%$$$$XooooooooooooooooO #%%%$$$$$$$$$$$$&#OOoooooooooO &$$%%%%%%%%%%%%%%%%%%$*",
"*%$%%%%%%%%%%%%%%%%%%%$&@+XooooooooX+.&$%%%%%%%%%%%$$&@OooooooooooooooooOXX.&%$$%%%%%%%%%$&#OXoooooooooO &$$%%%%%%%%%%%%%%%%%$$=",
"*$$%%%%%%%%%%%%%%%%%%%%&@+XooooooooX+.&$%%%%%%%%%%$$%&.OooooooooooooooooOXX $&$%%%%%%%%%%$&#OooooooooooO &$$%%%%%%%%%%%%%%%%%%$=",
"=&$%%%%%%%%%%%%%%%%%%%%&@+XooooooooX+.&$%%%%%%%%%%%$&#oOooooooooooooooooXOOO.&$$%%%%%%%%%$&#OOoooooooooO &$$%%%%%%%%%%%%%%%%%$$-",
"=*$%%%%%%%%%%%%%%%%%%%$&@+XooooooooXO.&%%%%%%%%%%$$$&@XOooooooooooooooooOXo+ %&$$%%%%%%%%$&#OooooooooooO &%$%%%%%%%%%%%%%%%%%$%-",
"-*$%%%%%%%%%%%%%%%%%%%$&@+XooooooooX+.&%%%%%%%%%$%$&$ OOooooooooooooooooXOooO.$$$%$%%%%%%%&#OooooooooooO &$$%%%%%%%%%%%%%%%%%$*-",
"-*$$%%%%%%%%%%%%%%%%%%$&@+XooooooooXO.&%%%%%%%%$%$$&@OOXooooooooOOooooooOoooOO@&$$%$%%%%%$&#OooooooooooO &$$%%%%%%%%%%%%%%%%$$*:",
";=$%%%%%%%%%%%%%%%%%%%$&@OXooooooooX+.&$%%%%%%$%$$&@ OXOooooooOo@@OOooooooooXO #&$$%$%%%%$&#OooooooooooO &$$%%%%%%%%%%%%%%%%%%=;",
";=$%%%%%%%%%%%%%%%%%%%$&@+ooooOXXOXX+.&%%%%%%%%$$%#oOOooooooOXO %& XOoooooooXOOo@&&$%%%%%$&#OXOooooooooO &$$%%%%%%%%%%%%%%%%%$=;",
";-$$%%%%%%%%%%%%%%%%%%$&@+XooooXOXOX+.&$%%%%%$$$&@OoOXooooooXXO@&&# OoooooooOooOX@%%$%%%%$&#OXoooooooooO &$$%%%%%%%%%%%%%%%%$$-;",
";-*$%%%%%%%%%%%%%%%%%%$&@+OOOOOOOOOO+.&$%%%%$%$$&.OooooooooOOXO@&$$.ooooooooooooO #&$$%$%$&#OOOOOOOOOOO+ &$$%%%%%%%%%%%%%%$%$*-;",
";:*$$%%%%%%%%%%%%%%%%%$&#            .&$%%%$%$%&@OoooooooooXOO $%$&#OOooooooooooOX #&$$%$$&#            .&$$%%%%%%%%%%%%%%$$$*::",
":;=$%%%%%%%%%%%%%%%%%%$%$$$$$$$$%$$$$$%$%%%%$%&@OoooooooooooOO@&$$$&@OXOoooooooooOO #&&%%$%$$$$$$$$$$$$$$%$$%%%%%%%%%%%%%%%%$=;:",
":;-$$%%%%%%%%%%%%%%%%%%$%&&&&&&&&&&&&%$%$%$$&$@+oooooooooooXX.&%$%$$&.oooooooooooooO+.$%$$$%&&&&&&&&&&&&%$%%%%%%%%%%%%%%%%%$$-;:",
":;-*$$%%%%%%%%%%%%%%%%%%$$$$$$$$$$$$$$%$%$$&&.+XooooooooooOOX#&$$$%$&# +ooooooooooooOO.&&%$$$$$$$$$$$$$$$%%%%%%%%%%%%%%%%%$$*-;:",
"::;=$%%%%%%%%%%%%%%%%%%%%%%%%%%%%%%%%%%$$$&#.XXOoooooooooOX @$$$%%%%%&# OooooooooooooXO.$$$$$%$%%%%%%%%%%%%%%%%%%%%%%%%%%%%$*;::",
"::;=$$%%%%%%%%%%%%%%%%%%%%%%%%%%%%%%$%%$&&#+OOoooooooooooOX#&%$%%%%%%$&@+XXOooooooooooOO.@%&$$%%$%%%%%%%%%%%%%%%%%%%%%%%%$$$=;::",
"::;-*$$%%%%%%%%%%%%%%%%%%%%%%%%%%%%%%$$&%@ OOooooooooooooO@&$$%%%%%%%$%$.XOXoooooooooooooO #&&$$%$%%%%%%%%%%%%%%%%%%%%%%%$$*-;::",
":::;=$$%%%%%%%%%%%%%%%%%%%%%%%%%$%$$$$&@ OOooooooooooooo+.&%$%%%%%%%%%$&% OoooooooooooooooOX.#&&$$$$$%%%%%%%%%%%%%%%%%%%%%$=;:::",
":::;-$%$%%%%%%%%%%%%%%%%%%%%%%$$$$$&&%# OXooooooooooooOOX#&%%$%%%%%%%$$$&@XooooooooooooooOXOO.@%&&$$$$%$%%%%%%%%%%%%%%%%%$$-;:::",
"::::-*$$%%%%%%%%%%%%%%%%%%%%%%%%&&&#..OOOooooooooooooOO #&$$$%%%%%%%%%%$$$#@+Oooooooooooooooo++ .#&&&&$%%%%%%%%%%%%%%%%%$$*:;:::",
"::::;=$$%%%%%%%%%%%%%%%%%%$%$$$$%@.OOOoooooooooooooooo.$&$$%%%%%%%%%%%$%$$&&@OoooooooooooooooooO++..#$$$$$%$%%%%%%%%%%%%%$=;::::",
"::::;-*$$%%%%%%%%%%%%%%%$$$$%&&%.OOoooooooooooooooOXO %&$%%$%%%%%%%%%%%$%$$$&.OOooooooooooooooooXX++O#&&&$$%$%%%%%%%%%%$$*-;::::",
":::::;=$%%%%%%%%%%%%%%%$$&&&$#@. OoooooooooooooooOXOO.&$$%$%%%%%%%%%%%%%%$$$%# OooooooooooooooooOXXXX.@##&&$%%%%%%%%%%%%$=;:::::",
":::::;-*$$%%%%%%%%%%%$$%&#@@ oOOOoooooooooooooooXOO.#&%$%%%%%%%%%%%%%%%%%%%%$&#@OOXOooooooooooooooooO++OX.$&$%%%%%%%%%$$*-;:::::",
"::::::;=$%$%%%%%%%%%%$%$.XOOOOooooooooooooooooooO #%&$$%$%%%%%%%%%%%%%%%%%$$%$&&#.+XooooooooooooooooXXOX+.&$$%%%%%%%%$%$=;::::::",
"::::::;-*$%%%%%%%%%%%$$&.+OoooooooooooooooooooOO.$&%$%%$%%%%%%%%%%%%%%%%%%%%$%$$&$# +oooooooooooooooXOXOX$&$%%%%%%%%$%$*-;::::::",
":::::::;=$%$%%%%%%%%%$%&@OoooooooooooooooooooOO.$&$$%$%%%%%%%%%%%%%%%%%%%%%%%$%%%$&@.OooooooooooooOXOXOX.%$$%%%%%%%%$$$=;:::::::",
":::::::::*$$$%%%%%%%%%$&$ OXXOXOOXOXOXoooooOX.@&&$%$%%%%%%%%%%%%%%%%%%%%%%%%%%%$%$$&&#oOOXOXOXOXoooooOX.$$$%%%%%%%%%$$*:::::::::",
"::::::::;-&$$%%%%%%%%$$$&.+XXXOXXOXOoOoOO++ @#&$$%$%%%%%%%%%%%%%%%%%%%%%%%%%%%%%$%$$%&@ ++OOXOXOoooooO %$$$%%%%%%%%$$$-;::::::::",
":::::::::;=$%$%%%%%%%%$$&#+OXOXOOXXXoooXX @%&&$$%$%%%%%%%%%%%%%%%%%%%%%%%%%%%%%%%%%%%$&$@@ OOXXXooooXX#&$$%%%%%%%%$&$=;:::::::::",
"::::::::::-*$%$%%%%%%%%$&$ OOXOXXOXXOO+o@$&%$$$%$%%%%%%%%%%%%%%%%%%%%%%%%%%%%%%%%%%$%%$&&&$.+OXOoooo+ %%$%$%%%%%%$%$*-::::::::::",
"::::::::::;-&$%$%%%%%%$$%%#XOOooO++O  @#&$$$%$%%%%%%%%%%%%%%%%%%%%%%%%%%%%%%%%%%%%%%%$%$$$%$#. +OOXOO@&$$$%%%%%%%%$$-;::::::::::",
":::::::::::;=$%$%%%%%%%%%%&.OXOO+ .##$&&$$%%%%%%%%%%%%%%%%%%%%%%%%%%%%%%%%%%%%%%%%%%%%%%$%$&&&$@ XO+ $%$%%%%%%%%$%$=;:::::::::::",
"::::::::::::-*$$$%%%%%%%$$&#X+X@@$&&&%$$%$$%%%%%%%%%%%%%%%%%%%%%%%%%%%%%%%%%%%%%%%%%%%%%%$%$$$&&&#@.@&$$%%%%%%%$%$*-::::::::::::",
"::::::::::::;-*$%$%%%%%%%$&#X .#&&$$$$$%%%%%%%%%%%%%%%%%%%%%%%%%%%%%%%%%%%%%%%%%%%%%%%%%%%%%$%$$%&$@#&$%%%%%%%$%$*-;::::::::::::",
":::::::::::::;-&$%$%%%%%$$&$#$&$$$%$%%%%%%%%%%%%%%%%%%%%%%%%%%%%%%%%%%%%%%%%%%%%%%%%%%%%%%%%%%%$%$$&%$%$%%%%%$%$&-;:::::::::::::",
"::::::::::::::;=$$%$%%%%%%$&&&$$%%%%%%%%%%%%%%%%%%%%%%%%%%%%%%%%%%%%%%%%%%%%%%%%%%%%%%%%%%%%%%%%%%$$$%%%%%%%$%$$=;::::::::::::::",
":::::::::::::::;=$%%$%%%%$%$$$$$$%%%%%%%%%%%%%%%%%%%%%%%%%%%%%%%%%%%%%%%%%%%%%%%%%%%%%%%%%%%%%%%%%%$$%%%%%%$$%$=;:::::::::::::::",
":::::::::::::::::=$%%$%%%%%%%%%%%%%%%%%%%%%%%%%%%%%%%%%%%%%%%%%%%%%%%%%%%%%%%%%%%%%%%%%%%%%%%%%%%%%%%%%%%%$%$$=:::::::::::::::::",
"::::::::::::::::;:=$%%$%%%%%$$$$$$$$$$$$$%%$$$$$$$$$$$$$$%%%%%%%%%%%%%%%%%%%%%%%%%%%%%%%%%%%%%%%%%%%%%%%%$%%$=:;::::::::::::::::",
":::::::::::::::::;:=$%%$%%%$&&&&&&&&&&&&&$%&&&&&&&&&&&&&&$%%%%%%%%%%%%%%%%%%%%%%%%%%%%%%%%%%%%%%%%%%%%%%$%%$=:;:::::::::::::::::",
"::::::::::::::::::;:=$$%$%%$%%%%%%%%%%%%%$%%%%%%%%%%%%%%%$%%%%%%%%%%%%%%%%%%%%%%%%%%%%%%%%%%%%%%%%%%%%%$%$$=:;::::::::::::::::::",
":::::::::::::::::::;:=$$%$%%$$$$$$$$$$$$$%%$$$$$$$$$$$$$$%%%%%%%%%%%%%%%%%%%%%%%%%%%%%%%%%%%%%%%%%%%%%$%$$=:;:::::::::::::::::::",
":::::::::::::::::::::;=&$$%$%%%%%%%%%%%%%%%%%%%%%%%%%%%%%%%%%%%%%%%%%%%%%%%%%%%%%%%%%%%%%%%%%%%%%%%%$%$$&=;:::::::::::::::::::::",
"::::::::::::::::::::::;-*$%$$%%%%%%%%%%%%%%%%%%%%%%%%%%%%%%%%%%%%%%%%%%%%%%%%%%%%%%%%%%%%%%%%%%%%%%$%$$*-;::::::::::::::::::::::",
":::::::::::::::::::::::;-*$$%$%%%%%%%%%%%%%%%%%%%%%%%%%%%%%%%%%%%%%%%%%%%%%%%%%%%%%%%%%%%%%%%%%%%%$%$$*-;:::::::::::::::::::::::",
"::::::::::::::::::::::::;:=&$&%$%%%%%%%%%%%%%%%%%%%%%%%%%%%%%%%%%%%%%%%%%%%%%%%%%%%%%%%%%%%%%%%%$%&$$=:;::::::::::::::::::::::::",
":::::::::::::::::::::::::;;-*$$&%$%%%%%%%%%%%%%%%%%%%%%%%%%%%%%%%%%%%%%%%%%%%%%%%%%%%%%%%%%%%%$%%%$*-;;:::::::::::::::::::::::::",
":::::::::::::::::::::::::::;-=&$%%%%%%%%%%%%%%%%%%%%%%%%%%%%%%%%%%%%%%%%%%%%%%%%%%%%%%%%%%%%%%%%$$=-;:::::::::::::::::::::::::::",
"::::::::::::::::::::::::::::;;-*$$&%%%%%%%%%%%%%%%%%%%%%%%%%%%%%%%%%%%%%%%%%%%%%%%%%%%%%%%%%%&$$*-;;::::::::::::::::::::::::::::",
"::::::::::::::::::::::::::::::;:=*$$%%%$%%%%%%%%%%%%%%%%%%%%%%%%%%%%%%%%%%%%%%%%%%%%%%%%%%%&$$*=:;::::::::::::::::::::::::::::::",
":::::::::::::::::::::::::::::::;;-=*$$$$%$%%%%%%%%%%%%%%%%%%%%%%%%%%%%%%%%%%%%%%%%%%%%$%$&$$*=-;;:::::::::::::::::::::::::::::::",
":::::::::::::::::::::::::::::::::;;-=*$$%&%%%%%%%%%%%%%%%%%%%%%%%%%%%%%%%%%%%%%%%%%%%%&%$$*=-;;:::::::::::::::::::::::::::::::::",
":::::::::::::::::::::::::::::::::::;;-=*$$$&%%$$%%%%%%%%%%%%%%%%%%%%%%%%%%%%%%%%$%$$&$$$*=-;;:::::::::::::::::::::::::::::::::::",
":::::::::::::::::::::::::::::::::::::;;:-=*$$$$&%%%$%%%%%%%%%%%%%%%%%%%%%%%$%%%%&%$$$*=-:;;:::::::::::::::::::::::::::::::::::::",
":::::::::::::::::::::::::::::::::::::::;;;-=**$$$$$&%%%%%%$%%%%%%%%%%$%%%$$&&%$$$$**=-;;;:::::::::::::::::::::::::::::::::::::::",
"::::::::::::::::::::::::::::::::::::::::::;;;--=**$$$$$$%%%%%%%%%%%%%%%%$$$$$$**=--;;;::::::::::::::::::::::::::::::::::::::::::",
":::::::::::::::::::::::::::::::::::::::::::::;;;:--==**%$$$$$$$%%$$$$$$$%**===-:;;;:::::::::::::::::::::::::::::::::::::::::::::",
":::::::::::::::::::::::::::::::::::::::::::::::::;;;;;---==***&%%&***==---;;;;;:::::::::::::::::::::::::::::::::::::::::::::::::"
};
