/* XPM */
static char *_645f939313f4976bb24bad4531ec74c[] = {
/* columns rows colors chars-per-pixel */
"64 64 16 1 ",
"  c #74A4B7",
". c #26A1D7",
"X c #00A2E4",
"o c #02A2E4",
"O c #0CA1E2",
"+ c #00A1E8",
"@ c #4AA3C9",
"# c #86A4B1",
"$ c #A2A4A4",
"% c gray65",
"& c #ACA5A2",
"* c #B0B0AF",
"= c #D1D1D0",
"- c #EEEEEE",
"; c #FEFEFE",
": c None",
/* pixels */
"::::::::::::::::::::::;;;-==***&&***==-;;;;:::::::::::::::::::::",
":::::::::::::::::::;;;-=***%%$%%%%$%%***=-:;;:::::::::::::::::::",
":::::::::::::::::;;-=**$$$$%%%%%%%%%%$$$$%*=-;;:::::::::::::::::",
":::::::::::::::;;-=*$$%%%%%%%%%%%%%%%%%%%%$$*=-;;:::::::::::::::",
"::::::::::::::;-=&$$&%%%%%%%%%%%%%%%%%%%%%%&$$&=-;::::::::::::::",
"::::::::::::;;=*$%%%%%%%%%%%%%%%%%%%%%%%%%%%%%%$*=;;::::::::::::",
":::::::::::;-=$$&%%%%%%%%%%%%%%%%%%%%%%%%%%%%%%&$$=-;:::::::::::",
"::::::::::;-*$%%%%%%%%%%%%%%%%%%%%%%%%%%%%%%%%%%%%$*-;::::::::::",
":::::::::;-*$&%%%%%%%%%%%%%%%%%%%%%%%%%%%%%%%%%%%%&$*-;:::::::::",
"::::::::;-*$%%%%%%%%%%%%%%%%%%%%%%%%%%%%%%%%%%%%%%%%$*-;::::::::",
":::::::;-*$%%%%%%%%%%%%%%%%%%%%%%%%%%%%%%%%%%%%%%%%%%$*-;:::::::",
"::::::;-*$%%%%%%%%%%%%%%%%%%%%%%%%%%%%%%%%%%%%%%%%%%%%$&-;::::::",
":::::;-*$%%%%$$$$$$$$$$$$$$$$$$$$$$$$$$$$$$$$$$$$$$$$%%$*-;:::::",
":::::;=$%%%%&&&&&&&&&&&&&&&&&&&&&&&&&&&&&&&&&&&&&&&&&%%%$=;:::::",
"::::;=$%%%%&#                                       $&%%%$=;::::",
":::;-*$%%%$&@+++++++++++++++++++++++++++++++++++++++ &$%%$*-;:::",
":::;=$%%%%$&@ooooooooooooooooooooooooooooooooooooooo &$$%%$=;:::",
"::;-%$%%%%$&@+ooooooooooooooooooooooooooooooooooooo+ &$%$%$&-;::",
"::;=$%%%%%$&@+ooooo++++++++++oooooo+++++++++++ooooo+ &$%%%%$=;::",
":;-&$%%%%%$&@+ooooO@.......@@oooooo.@.......@.ooooo+ &$%%%%$&-;:",
":;=$%%%%%%$&@+ooo+.&&&&&&&&&%Oooooo#&&&&&&&&&$+oooo+ &$%%%%%$=;:",
":;*$%%%%%%$&@+ooo+O$$$$$$$$%#Ooooo+ &$$$$$$$&#+oooo+ &$%%%%%$*::",
";-*$%%%%%%$&@+ooo+.$%$%%%%%&$Ooooo+ &$%%%%%$&#+oooo+ &$%%%%%%$-;",
";=$%%%%%%%$&@+ooo+.$&%%%%%%&$Ooooo+ &$%%%%%$&#+oooo+ &$%%%%%%$=;",
";*$%$%%%%%$&@+ooo+.$&%%%%%%&$Ooooo+ &$%%%%%$&#+oooo+ &$%%%%$%$*;",
"-*$%%%%%%%$&@+ooo+.$%$$$$$$&#Ooooo+ &$$$$$$$&#+oooo+ &$%%%%%%$*;",
"=*$%%%%%%%$&@+ooo+.%&&&&&&&&$Ooooo+ &&&&&&&&&#+oooo+ &$%%%%%%$%-",
"=%$%%%%%%%$&@+ooo+O##########Oooooo ######### +oooo+ &$%%%%%%%$-",
"*%%%%%%%%%$&@+ooooooooooooooooooooooooooooooooooooo+ &$%%%%%$%$=",
"*$%$%%%%%%$&@+ooooooooooooooooooooooooooooooooooooo+ &$%%%%%%%$*",
"*%$%%%%%%%$&@+ooooooooooooooooooooooooooooooooooooo+ &$%%%%%%%$*",
"&%%%%%%%%%$&@+ooooooooooooooooooooooooooooooooooooo+ &$%%%%%%%$*",
"&%%%%%%%%%$&@+ooooo++++++++oooooooooo+++++++++ooooo+ &$%%%%%%%$*",
"*%$%%%%%%%$&@+ooo+O ####### Ooooooo+@######## +oooo+ &$%%%%%%%$*",
"*$%$%%%%%%$&@+ooo+.%&&&&&&&@+oooooo+O &&&&&&&#+oooo+ &$%%%%%%%$*",
"*%%%%%%%%%$&@+ooo+.$%$$$$$$O+ooooooo+o#&$$$$&#+oooo+ &$%%%%%$%$=",
"=%$%%%%%%%$&@+ooo+.$&%%%$& +oooo+oooo+@&$$%$&#+oooo+ &$%%%%%%%$-",
"=*$%%%%%%%$&@+ooo+.$&%%$&$.+oooo.ooooo+ &$$$&#+oooo+ &$%%%%%%$%-",
"-*$%%%%%%%$&@+++++O$%%$%$.+ooo+.&.+oooo+@&$$&#++++++ &$%%%%%%$*;",
";*$%$%%%%%$& O.....$&$$&@+oooo+@&#+oooo+o &$&#......#&$$%%%$%$*;",
";=$%%%%%%%%$%%%%%%%$$%&@+oooo+O$$&@+oooo+O@&%$%%%%%%$$%%%%%%%$=;",
";-%$%%%%%%%%%%%%%%%$&$@+oooooO &$%&.+ooooo+@&&$$%%%%%%%%%%%%%$-;",
";:*$%%%%%%%%%%%%$$%&#.+ooooo+ &$%$&$O+ooooo+. &&$$$%%%%%%%%%$*::",
":;=$%%%%%%%%%%$$&&% o+ooooo+@&$%%%$& O+ooooo++@#&&%$$%%%%%%&$=;:",
":;-&$%%%%%%%$$&&#@.+oooooo+@%$$%%%%$&#.+oooooo+o. $&&$%%%%%$&-;:",
"::;=$%%%%%%$&&# .++ooooo++.&&$%%%%%%$&#O+ooooooo++@##%$%%%%$=;::",
"::;-&$%$$%$&@.O++oooooo+O $$$%%%%%%%%$&$@o+oooooooo+@&$%%%$%-;::",
":::;=$%%%%$&@+ooooooo++.#&$$%%%%%%%%%%$&& .+oooooooO#&$%%%$=;:::",
":::;-*$%%%$&#ooooooo+O@$&$%%%%%%%%%%%%%$$&$.O+oooo+ &$%%%$*-;:::",
"::::;=$%%$%$&.+o+++O@$&%$%%%%%%%%%%%%%%%%$%&#@O+++.&$%%%%$=;::::",
":::::;=$%%%$&#++O@ $&&$$%%%%%%%%%%%%%%%%%%$$&&#@.O &$%%%$=;:::::",
":::::;-*$%%%%$.@$&&&$$%%%%%%%%%%%%%%%%%%%%%%$$&&% $&$%%$*-;:::::",
"::::::;-&$%%%%&&%$$%%%%%%%%%%%%%%%%%%%%%%%%%%%$$%&%%%%$&-;::::::",
":::::::;-*$%%$%$$%%%%%%%%%%%%%%%%%%%%%%%%%%%%%%%%$$%%$*-;:::::::",
"::::::::;-*$&%%&&&&&%%&&&&&&%%%%%%%%%%%%%%%%%%%%%%%%$*-;::::::::",
":::::::::;-*$&$$$%$$$%$%%%$$$%%%%%%%%%%%%%%%%%%%%%&$*-;:::::::::",
"::::::::::;-*$%%%%%%%%%%%%%%%%%%%%%%%%%%%%%%%%%%%%$*-;::::::::::",
":::::::::::;-=$$&%%%%%%%%%%%%%%%%%%%%%%%%%%%%%%&$$=-;:::::::::::",
"::::::::::::;;=*$%&%%%%%%%%%%%%%%%%%%%%%%%%%%%%$*=;;::::::::::::",
"::::::::::::::;-=&$$%%%%%%%%%%%%%%%%%%%%%%%&%$&=-;::::::::::::::",
":::::::::::::::;;-=*$$%%%%%%%%%%%%%%%%%%%%$$*=-;;:::::::::::::::",
":::::::::::::::::;;-=*$$$$%%%%%%%%%%%%$$$$*=-;;:::::::::::::::::",
":::::::::::::::::::;;:-=**%$$$$%%$$$$&**=-:;;:::::::::::::::::::",
"::::::::::::::::::::::;;;;--=**&&**=--:;;;::::::::::::::::::::::"
};
