/* XPM */
static char *cfce0b9cd27e4e648471f352282957fc[] = {
/* columns rows colors chars-per-pixel */
"16 16 16 1 ",
"  c #69A1B9",
". c #10A0DE",
"X c #1CA1D8",
"o c #30A1D1",
"O c #05A0E4",
"+ c #4AA2C8",
"@ c #86A3AF",
"# c #95A2A7",
"$ c #A2A3A3",
"% c #AAA4A0",
"& c #AEACAB",
"* c #C0C1C1",
"= c #DFE0E0",
"- c #F0F1F1",
"; c #FDFDFD",
": c None",
/* pixels */
":::;;=&%%&=;;:::",
"::;-*&$$$$&*-;::",
":;=&$%%%%%%$&=;:",
";-&#@@@@@@@@#&-:",
";*%+O..OO..Oo$*;",
"=&%o.#$oX#$oX%$:",
"&$%o.#%oX$%oX%$=",
"%$%oO..OO.OOX%$&",
"%$%oO@ OO+@X.%$&",
"&$%+o%+.XX%+o%$=",
"=&$%$+O $..@%$$:",
";*$ OO %%#oO+$*;",
";-& +#%$$%%  &-:",
":;=&%%%$$$$%&=;:",
"::;-*$$$$$$*-;::",
":::;;:=&&=:;;:::"
};
