/* XPM */
static char *_0bbdaac6b8b4d17b465f71eb3cf0bf9[] = {
/* columns rows colors chars-per-pixel */
"32 32 16 1 ",
"  c #6BA2BA",
". c #0BA1DF",
"X c #16A1DD",
"o c #3DA2CD",
"O c #01A1E3",
"+ c #00A1E7",
"@ c #52A2C5",
"# c #8AA3AE",
"$ c #A0A3A4",
"% c #A5A5A5",
"& c #ACA5A1",
"* c #B0B1B0",
"= c #CDCCCC",
"- c #E8E8E7",
"; c #FEFEFE",
": c None",
/* pixels */
":::::::::;;:=**&&**=:;;:::::::::",
":::::::;;-=*%%%%%%%%*=-;;:::::::",
"::::::;-=&$$%%%%%%%%$$&=-;::::::",
":::::;-*$%&%%%%%%%%%%&%$*-;:::::",
"::::;=$%%%%%%%%%%%%%%%%%%$=;::::",
":::;=$%$$$$$$$$$$$$$$$$$%$$=;:::",
"::;-$%&&&&&&&&&&&&&&&&&&&&%$-;::",
":;-*$& @@@@@@@@@@@@@@@@@@ %%*-;:",
":;=$%&o++++++++++++++++++.$&$=;:",
";-%%$&o+OXXXXXXOO.XXXXXOOX$&%%-;",
";=$&$&o++@%$$&@++o&$$$#OO.$%%$=;",
":*$%$&o++@&$$& ++o&%%&#OO.$&%$*;",
"=%%%$&o++@&%%& ++o&%%&#OO.$&%%$-",
"*%%%$&o++o$##$@++o$##$ OO.$&%%$-",
"*$%%$&o+OO.....OO......OO.$&%%$*",
"&%%%$&o+OO++++OOOO+++++OO.$&%%%*",
"&%%%$&o+OX@o@o.OOOo@o@oOO.$&%%%*",
"*$%%$&o++@&&& +OO+o&&&#OOX$%%%$*",
"*%%%$&o++@&$&o+..O+@&%#++.$&%%$-",
"=%%%$&@XX@&&o++o#+O+ &#XXo$%%%$-",
":*$%%%%$$&&@+OO &@+O+@&&%%%%%$*;",
";=$&%%&&&#o+O+ &$&o+O+o#&&%%&$=;",
";-%%%%$#o.OO+@&$%%%o+OO+o $%%%-;",
":;=$%&o+OO+X &$%%%%& .+O+X$&$=;:",
":;-*$& +OX@#&%%%%%%$&#o.+ &$*-;:",
"::;-$%%o $&&$%%%%%%%$&&# $%$-;::",
":::;=$%&&&$%&&%%%%%%%%$&&%$=;:::",
"::::;=$$%%%%&%%%%%%%%%%%$$=;::::",
":::::;-*$%&%%%%%%%%%%&%$*-;:::::",
"::::::;-=&$$%&%%%%%%$$&=-;::::::",
":::::::;;-=*$$$%%$$$*=-;;:::::::",
":::::::::;;;--*&&*--;;;:::::::::"
};
